<svg width="16" height="16" viewBox="0 0 16 16" fill="none" xmlns="http://www.w3.org/2000/svg">
<circle cx="8" cy="8" r="8" fill="#0C2F37"/>
<path fill-rule="evenodd" clip-rule="evenodd" d="M8 3.53124C7.78871 3.32983 7.57828 3.14586 7.37057 2.98093C6.85462 2.57124 6.34215 2.26833 5.86385 2.1144C5.38601 1.96062 4.90533 1.94532 4.5 2.17119C4.09467 2.39706 3.86806 2.8065 3.76712 3.28281C3.66608 3.75958 3.68163 4.3394 3.79126 4.97552C3.83539 5.2316 3.89524 5.49949 3.97031 5.7768C3.68395 5.85271 3.41366 5.93662 3.16183 6.02777C2.53625 6.2542 2.00823 6.53111 1.63096 6.85395C1.25407 7.17648 1 7.57062 1 8.02236C1 8.41415 1.19189 8.76394 1.48823 9.05922C1.78319 9.35312 2.19679 9.60964 2.68842 9.82745C3.06497 9.99427 3.49596 10.1422 3.97031 10.2679C3.89524 10.5452 3.83539 10.8131 3.79126 11.0692C3.68163 11.7053 3.66608 12.2852 3.76712 12.7619C3.86806 13.2382 4.09467 13.6477 4.5 13.8735C4.73241 14.003 5.13789 14.0495 5.54415 13.9343C5.97196 13.8129 6.41433 13.5107 6.71399 12.9237C6.7905 12.7738 6.72665 12.5924 6.57137 12.5186C6.4161 12.4447 6.22819 12.5064 6.15168 12.6562C5.92896 13.0925 5.62577 13.2805 5.36737 13.3538C5.08742 13.4332 4.86603 13.3789 4.81343 13.3495C4.61911 13.2413 4.46156 13.0196 4.38127 12.6407C4.30107 12.2622 4.30721 11.7628 4.40963 11.1685C4.45101 10.9283 4.50764 10.6754 4.57919 10.4121C5.18975 10.5405 5.85627 10.6349 6.55956 10.6898C6.68022 10.6992 6.79571 10.6407 6.85624 10.5395C6.91677 10.4383 6.91152 10.3125 6.84274 10.2164C6.58758 9.85964 6.33854 9.48012 6.09991 9.0812C5.88734 8.72582 5.69295 8.37164 5.51726 8.02236C5.69295 7.67309 5.88734 7.31891 6.09991 6.96353C6.31249 6.60816 6.53309 6.26859 6.75863 5.94709C7.15987 5.91931 7.57485 5.9047 8 5.9047C8.42491 5.9047 8.83991 5.9193 9.24137 5.94709C9.46691 6.26859 9.68751 6.60816 9.90009 6.96353C10.1127 7.31891 10.307 7.67309 10.4827 8.02236C10.3069 8.37184 10.1125 8.72602 9.90009 9.0812C9.66146 9.48012 9.41242 9.85963 9.15726 10.2164C9.08848 10.3125 9.08323 10.4383 9.14376 10.5395C9.20429 10.6407 9.31978 10.6992 9.44044 10.6898C10.1437 10.6349 10.8103 10.5405 11.4208 10.4121C11.4924 10.6754 11.549 10.9283 11.5904 11.1685C11.6928 11.7628 11.6989 12.2622 11.6187 12.6407C11.5384 13.0196 11.3809 13.2413 11.1866 13.3495C11.134 13.3789 10.9126 13.4332 10.6326 13.3538C10.3742 13.2805 10.071 13.0925 9.84832 12.6562C9.77181 12.5064 9.5839 12.4447 9.42863 12.5186C9.27335 12.5924 9.2095 12.7738 9.28601 12.9237C9.58568 13.5107 10.028 13.8129 10.4559 13.9343C10.8621 14.0495 11.2676 14.003 11.5 13.8735C11.9053 13.6477 12.1319 13.2382 12.2329 12.7619C12.3339 12.2852 12.3184 11.7053 12.2087 11.0692C12.1646 10.8131 12.1048 10.5452 12.0297 10.2679C12.504 10.1422 12.935 9.99427 13.3116 9.82745C13.8032 9.60964 14.2168 9.35312 14.5118 9.05922C14.8081 8.76394 15 8.41415 15 8.02236C15 7.44764 14.5924 6.96866 14.0273 6.59984C13.5185 6.26771 12.8318 5.98943 12.0297 5.7768C12.24 4.99998 12.3336 4.28687 12.29 3.6955C12.2416 3.03878 12.0157 2.45855 11.5 2.17119C11.0947 1.94532 10.614 1.96062 10.1362 2.1144C9.65785 2.26833 9.14538 2.57124 8.62943 2.98093C8.42172 3.14586 8.21129 3.32983 8 3.53124ZM5.66556 2.68838C5.28545 2.56605 5.00775 2.58689 4.81343 2.69518C4.61911 2.80347 4.46156 3.02516 4.38127 3.40406C4.30107 3.78249 4.30721 4.28194 4.40963 4.87624C4.45101 5.11639 4.50764 5.36932 4.57919 5.63263C5.14587 5.51347 5.76169 5.42335 6.41171 5.36711C6.78717 4.8519 7.17595 4.3822 7.56621 3.96811C7.36572 3.77664 7.16709 3.60284 6.97231 3.44818C6.49028 3.06541 6.04522 2.81056 5.66556 2.68838ZM8 4.40711C7.74126 4.6837 7.48182 4.9875 7.22588 5.31543C7.48021 5.305 7.73851 5.29966 8 5.29966C8.26158 5.29966 8.51988 5.305 8.77411 5.31542C8.51818 4.9875 8.25874 4.6837 8 4.40711ZM9.58829 5.36711C9.21283 4.85189 8.82406 4.3822 8.4338 3.96811C8.63428 3.77664 8.83291 3.60284 9.02769 3.44818C9.50972 3.06541 9.95478 2.81056 10.3344 2.68838C10.7146 2.56605 10.9922 2.58689 11.1866 2.69518C11.4338 2.83298 11.622 3.15866 11.6648 3.73844C11.7022 4.24605 11.6217 4.89324 11.4208 5.63263C10.8547 5.51359 10.2389 5.4234 9.58829 5.36711ZM10.0418 6.02183C10.1783 6.2292 10.3122 6.44244 10.443 6.66101C10.5737 6.87958 10.6981 7.09816 10.8159 7.31596C10.982 6.93832 11.1249 6.56957 11.2438 6.21474C10.866 6.13669 10.4637 6.07176 10.0418 6.02183ZM11.8546 6.35784C11.6784 6.89059 11.4514 7.4504 11.1766 8.02237C11.4511 8.59382 11.6782 9.15363 11.8546 9.68689C12.3028 9.56852 12.7046 9.43061 13.0501 9.27756C13.4996 9.07839 13.8389 8.86006 14.0615 8.63825C14.2827 8.41781 14.3731 8.21102 14.3731 8.02236C14.3731 7.74677 14.175 7.42664 13.6762 7.10103C13.2394 6.81594 12.6185 6.5596 11.8546 6.35784ZM11.2438 9.82999C11.125 9.47542 10.9821 9.10666 10.8159 8.72877C10.6981 8.94649 10.5738 9.16507 10.443 9.38372C10.3121 9.60243 10.1782 9.81567 10.0418 10.0229C10.4645 9.97287 10.8667 9.90788 11.2438 9.82999ZM5.95824 6.02183C5.53604 6.0718 5.13373 6.13675 4.75619 6.21474C4.87499 6.56931 5.01786 6.93807 5.18412 7.31596C5.30193 7.09816 5.42629 6.87958 5.55703 6.66101C5.68778 6.44244 5.82172 6.2292 5.95824 6.02183ZM4.82341 8.02236C4.54886 7.45091 4.32182 6.8911 4.1454 6.35784C3.87336 6.42969 3.6181 6.50882 3.38194 6.5943C2.79748 6.80584 2.34628 7.05043 2.04683 7.30668C1.74701 7.56325 1.62687 7.80579 1.62687 8.02236C1.62687 8.21102 1.71725 8.41781 1.93848 8.63825C2.1611 8.86006 2.50037 9.07839 2.94993 9.27756C3.29537 9.43061 3.69724 9.56852 4.1454 9.68689C4.32182 9.15363 4.54886 8.59382 4.82341 8.02236ZM4.75619 9.82999C5.13328 9.90788 5.53553 9.97287 5.95824 10.0229C5.82181 9.81567 5.68786 9.60243 5.55703 9.38372C5.42629 9.16515 5.30193 8.94656 5.18412 8.72876C5.01786 9.10666 4.87499 9.47542 4.75619 9.82999Z" fill="#6EE0F9" fill-opacity="0.803334"/>
<path d="M8.31343 8.98459C8.73731 8.85609 9.04478 8.47387 9.04478 8.02235C9.04478 7.46542 8.57702 7.01393 8 7.01393C7.42299 7.01393 6.95523 7.46542 6.95523 8.02235C6.95523 8.47387 7.26269 8.85609 7.68657 8.98459V11.2493H7.40091C7.38313 11.2493 7.36607 11.2561 7.3535 11.2682L6.97486 11.6337C6.96229 11.6458 6.95523 11.6623 6.95523 11.6794V12.5963C6.95523 12.6321 6.98525 12.661 7.02228 12.661H7.37314V13.403C7.37314 13.4388 7.40316 13.4678 7.44019 13.4678H7.72399C7.76103 13.4678 7.79105 13.4388 7.79105 13.403V12.661H8.20896V13.403C8.20896 13.4388 8.23898 13.4678 8.27601 13.4678H8.55981C8.59685 13.4678 8.62687 13.4388 8.62687 13.403V12.661H8.97772C9.01476 12.661 9.04478 12.6321 9.04478 12.5963V11.6794C9.04478 11.6623 9.03771 11.6458 9.02514 11.6337L8.64651 11.2682C8.63393 11.2561 8.61688 11.2493 8.59909 11.2493H8.31343V8.98459Z" fill="#6EE0F9" fill-opacity="0.803334"/>
</svg>
