<svg width="16" height="16" viewBox="0 0 16 16" fill="none" xmlns="http://www.w3.org/2000/svg">
<circle cx="8" cy="8" r="5" fill="#3F3F46"/>
<rect x="3" y="14" width="10" height="2" rx="1" fill="#3F3F46"/>
<circle cx="10" cy="6" r="1" fill="#BAE6FD"/>
<path d="M3.05144 12.9486C2.66026 13.3397 2.02024 13.3431 1.68097 12.9061C0.921806 11.9283 0.397 10.7838 0.153721 9.56072C-0.15496 8.00887 0.00346631 6.40034 0.608967 4.93853C1.21447 3.47672 2.23985 2.22729 3.55544 1.34824C4.87103 0.469192 6.41775 -9.43407e-09 8 0C9.58225 9.43407e-09 11.129 0.469192 12.4446 1.34824C13.7602 2.22729 14.7855 3.47672 15.391 4.93853C15.9965 6.40034 16.155 8.00887 15.8463 9.56072C15.603 10.7838 15.0782 11.9283 14.319 12.9061C13.9798 13.3431 13.3397 13.3397 12.9486 12.9486C12.5574 12.5574 12.5656 11.927 12.8863 11.4762C13.3749 10.7894 13.7155 10.004 13.8814 9.16989C14.1128 8.00665 13.9941 6.80093 13.5402 5.70518C13.0863 4.60944 12.3177 3.67289 11.3316 3.01397C10.3454 2.35505 9.18603 2.00335 8 2.00335C6.81398 2.00335 5.65459 2.35505 4.66845 3.01397C3.6823 3.67289 2.9137 4.60944 2.45983 5.70518C2.00595 6.80093 1.8872 8.00665 2.11858 9.16989C2.28449 10.004 2.62509 10.7894 3.11374 11.4762C3.43443 11.927 3.44262 12.5574 3.05144 12.9486Z" fill="#3F3F46"/>
<path d="M3.05144 12.9486C2.66026 13.3397 2.02025 13.3431 1.68098 12.9061C1.2438 12.343 0.882914 11.7228 0.608964 11.0615C0.206926 10.0909 -2.2961e-08 9.05057 0 8C2.2961e-08 6.94942 0.206926 5.90914 0.608964 4.93853C1.011 3.96793 1.60028 3.08601 2.34315 2.34315C3.08601 1.60028 3.96793 1.011 4.93853 0.608964C5.90914 0.206926 6.94942 -6.88831e-08 8 0C9.05058 6.88831e-08 10.0909 0.206926 11.0615 0.608964C11.7228 0.882915 12.343 1.2438 12.9061 1.68098C13.3431 2.02025 13.3397 2.66026 12.9486 3.05144C12.5574 3.44262 11.927 3.43444 11.4762 3.11374C11.1092 2.8526 10.713 2.63303 10.2948 2.45982C9.56727 2.15846 8.78749 2.00335 8 2.00335C7.21251 2.00335 6.43273 2.15846 5.70518 2.45982C4.97764 2.76118 4.31657 3.20289 3.75973 3.75973C3.20289 4.31657 2.76118 4.97764 2.45982 5.70518C2.15846 6.43273 2.00335 7.21251 2.00335 8C2.00335 8.78749 2.15846 9.56727 2.45982 10.2948C2.63303 10.713 2.8526 11.1092 3.11374 11.4762C3.43444 11.927 3.44262 12.5574 3.05144 12.9486Z" fill="#BAE6FD"/>
</svg>
