<svg width="16" height="16" viewBox="0 0 16 16" fill="none" xmlns="http://www.w3.org/2000/svg">
<path fill-rule="evenodd" clip-rule="evenodd" d="M2.20989 7C2.24558 7 2.27841 7.01914 2.29717 7.04951C2.64947 7.6199 3.28035 8 4 8H12.5444C12.5709 8 12.5963 8.01054 12.6151 8.02929L12.9707 8.38492C12.9895 8.40368 13 8.42911 13 8.45563V13C13 13.5523 12.5523 14 12 14H3.41421C3.149 14 2.89464 14.1054 2.70711 14.2929L1.20711 15.7929C1.0745 15.9255 0.894643 16 0.707107 16C0.316583 16 0 15.6834 0 15.2929V8C0 7.44772 0.447715 7 1 7H2.20989Z" fill="#3F3F46"/>
<path d="M16 1C16 0.447715 15.5523 0 15 0H4C3.44772 0 3 0.447715 3 1V6C3 6.55228 3.44772 7 4 7H12.5858C12.851 7 13.1054 7.10536 13.2929 7.29289L14.7929 8.79289C14.9255 8.9255 15.1054 9 15.2929 9V9C15.6834 9 16 8.68342 16 8.29289V1Z" fill="#BAE6FD"/>
</svg>
