<svg width="200" height="178" viewBox="0 0 200 178" fill="none" xmlns="http://www.w3.org/2000/svg">
<path fill-rule="evenodd" clip-rule="evenodd" d="M99.7209 22.6004C96.7109 19.6277 93.7129 16.9124 90.7539 14.4781C83.4039 8.43122 76.1029 3.96042 69.2895 1.68852C62.4823 -0.581279 55.6347 -0.80698 49.8604 2.52672C44.0862 5.86052 40.8579 11.9036 39.4199 18.9337C37.9805 25.9706 38.202 34.5286 39.7638 43.9175C40.3924 47.6971 41.2451 51.651 42.3145 55.744C38.2351 56.8644 34.3846 58.1029 30.797 59.4483C21.8852 62.7907 14.363 66.8777 8.9886 71.6427C3.6193 76.4027 0 82.2197 0 88.8877C0 94.6697 2.7335 99.8327 6.9551 104.191C11.1571 108.529 17.0492 112.315 24.0529 115.53C29.4172 117.992 35.557 120.176 42.3145 122.031C41.2451 126.125 40.3924 130.078 39.7637 133.858C38.202 143.247 37.9805 151.805 39.4199 158.842C40.8579 165.872 44.0862 171.915 49.8604 175.249C53.1713 177.16 58.9477 177.846 64.7352 176.145C70.8298 174.354 77.1319 169.893 81.4009 161.229C82.4909 159.017 81.5809 156.34 79.3689 155.25C77.1569 154.16 74.4799 155.07 73.3899 157.282C70.2171 163.721 65.8979 166.496 62.2168 167.578C58.2287 168.75 55.0749 167.948 54.3255 167.515C51.5573 165.917 49.3129 162.645 48.169 157.052C47.0265 151.467 47.1139 144.095 48.573 135.323C49.1625 131.779 49.9692 128.046 50.9886 124.159C59.6865 126.054 69.1817 127.448 79.2009 128.258C80.9199 128.397 82.5649 127.533 83.4269 126.04C84.2889 124.546 84.2149 122.69 83.2349 121.27C79.5999 116.005 76.0519 110.404 72.6529 104.516C69.6242 99.2707 66.8551 94.0427 64.3522 88.8877C66.8551 83.7327 69.6242 78.5047 72.6529 73.2597C75.6809 68.0147 78.8239 63.0027 82.0369 58.2574C87.7529 57.8474 93.6639 57.6318 99.7209 57.6318C105.774 57.6318 111.686 57.8472 117.405 58.2575C120.618 63.0027 123.761 68.0147 126.789 73.2597C129.818 78.5047 132.587 83.7327 135.09 88.8877C132.585 94.0457 129.816 99.2737 126.789 104.516C123.39 110.404 119.842 116.005 116.207 121.27C115.227 122.69 115.152 124.546 116.015 126.04C116.877 127.533 118.522 128.397 120.241 128.258C130.26 127.448 139.755 126.054 148.453 124.159C149.473 128.046 150.279 131.779 150.869 135.323C152.328 144.095 152.415 151.467 151.273 157.052C150.129 162.645 147.885 165.917 145.116 167.515C144.367 167.948 141.213 168.75 137.225 167.578C133.544 166.496 129.225 163.721 126.052 157.282C124.962 155.07 122.285 154.16 120.073 155.25C117.861 156.34 116.951 159.017 118.041 161.229C122.31 169.893 128.612 174.354 134.707 176.145C140.494 177.846 146.271 177.16 149.581 175.249C155.356 171.915 158.584 165.872 160.022 158.842C161.461 151.805 161.24 143.247 159.678 133.858C159.049 130.078 158.197 126.125 157.127 122.031C163.885 120.176 170.025 117.992 175.389 115.53C182.393 112.315 188.285 108.529 192.487 104.191C196.708 99.8327 199.442 94.6697 199.442 88.8877C199.442 80.4047 193.635 73.3357 185.585 67.8917C178.337 62.9897 168.555 58.8823 157.127 55.744C160.123 44.2785 161.457 33.7532 160.836 25.0248C160.146 15.3319 156.928 6.76802 149.581 2.52672C143.807 -0.80698 136.959 -0.581279 130.152 1.68852C123.339 3.96042 116.038 8.43122 108.688 14.4781C105.729 16.9124 102.731 19.6277 99.7209 22.6004ZM66.4648 10.1602C61.0498 8.35462 57.0938 8.66232 54.3255 10.2605C51.5573 11.8588 49.3129 15.1309 48.169 20.7233C47.0265 26.3089 47.1139 33.6805 48.573 42.4522C49.1625 45.9965 49.9693 49.7297 50.9886 53.6162C59.0614 51.8574 67.8343 50.5272 77.0939 49.6972C82.4429 42.0928 87.9819 35.1603 93.5409 29.0485C90.6849 26.2225 87.8549 23.6572 85.0809 21.3745C78.2139 15.725 71.8729 11.9635 66.4648 10.1602ZM99.7209 35.5279C96.0349 39.6103 92.3389 44.0943 88.6929 48.9343C92.3159 48.7804 95.9959 48.7016 99.7209 48.7016C103.447 48.7016 107.127 48.7804 110.749 48.9343C107.103 44.0943 103.407 39.6102 99.7209 35.5279ZM122.348 49.6971C116.999 42.0928 111.46 35.1603 105.901 29.0485C108.757 26.2225 111.587 23.6572 114.361 21.3745C121.228 15.725 127.569 11.9635 132.977 10.1602C138.392 8.35462 142.348 8.66232 145.116 10.2605C148.639 12.2944 151.32 17.1014 151.928 25.6586C152.462 33.1507 151.315 42.703 148.453 53.6162C140.388 51.8591 131.616 50.5279 122.348 49.6971ZM128.808 59.3605C130.752 62.4217 132.661 65.5687 134.523 68.7947C136.386 72.0207 138.157 75.2467 139.836 78.4617C142.202 72.8877 144.238 67.4447 145.932 62.2077C140.55 61.0557 134.818 60.0977 128.808 59.3605ZM154.633 64.3197C152.122 72.1827 148.889 80.4457 144.974 88.8877C148.885 97.3217 152.12 105.585 154.633 113.456C161.017 111.709 166.742 109.673 171.664 107.414C178.068 104.474 182.901 101.252 186.072 97.9777C189.224 94.7237 190.512 91.6717 190.512 88.8877C190.512 84.8197 187.689 80.0947 180.583 75.2887C174.361 71.0817 165.515 67.2977 154.633 64.3197ZM145.932 115.568C144.239 110.334 142.204 104.892 139.836 99.3137C138.158 102.528 136.386 105.754 134.523 108.981C132.659 112.209 130.751 115.356 128.808 118.415C134.829 117.677 140.56 116.717 145.932 115.568ZM70.6343 59.3605C64.6197 60.0977 58.8885 61.0567 53.51 62.2077C55.2024 67.4407 57.2378 72.8837 59.6063 78.4617C61.2846 75.2467 63.0562 72.0207 64.9187 68.7947C66.7813 65.5687 68.6895 62.4217 70.6343 59.3605ZM54.4677 88.8877C50.5565 80.4527 47.322 72.1907 44.8088 64.3197C40.9334 65.3807 37.297 66.5487 33.9327 67.8097C25.6066 70.9317 19.1789 74.5427 14.9129 78.3247C10.6417 82.1117 8.9302 85.6907 8.9302 88.8877C8.9302 91.6717 10.2178 94.7237 13.3695 97.9777C16.5408 101.252 21.3739 104.474 27.7783 107.414C32.6995 109.673 38.4244 111.709 44.8088 113.456C47.322 105.585 50.5565 97.3217 54.4677 88.8877ZM53.51 115.568C58.882 116.717 64.6125 117.677 70.6342 118.415C68.6907 115.356 66.7825 112.209 64.9187 108.981C63.0562 105.755 61.2846 102.529 59.6063 99.3137C57.2378 104.892 55.2024 110.334 53.51 115.568Z" fill="#0284C7"/>
<path d="M104.186 103.09C110.225 101.193 114.605 95.5519 114.605 88.8879C114.605 80.6679 107.941 74.0039 99.7212 74.0039C91.5012 74.0039 84.8372 80.6679 84.8372 88.8879C84.8372 95.5519 89.2172 101.193 95.2562 103.09V136.516H91.1862C90.9332 136.516 90.6902 136.616 90.5112 136.795L85.1172 142.189C84.9382 142.368 84.8372 142.611 84.8372 142.865V156.397C84.8372 156.925 85.2652 157.353 85.7932 157.353H90.7912V168.304C90.7912 168.832 91.2182 169.26 91.7462 169.26H95.7892C96.3172 169.26 96.7442 168.832 96.7442 168.304V157.353H102.698V168.304C102.698 168.832 103.125 169.26 103.653 169.26H107.696C108.224 169.26 108.651 168.832 108.651 168.304V157.353H113.649C114.177 157.353 114.605 156.925 114.605 156.397V142.865C114.605 142.611 114.504 142.368 114.325 142.189L108.931 136.795C108.752 136.616 108.509 136.516 108.256 136.516H104.186V103.09Z" fill="#0284C7"/>
</svg>
