<svg width="256" height="256" viewBox="0 0 256 256" fill="none" xmlns="http://www.w3.org/2000/svg">
<mask id="mask0_38_5" style="mask-type:alpha" maskUnits="userSpaceOnUse" x="0" y="0" width="256" height="256">
<circle cx="128" cy="128" r="128" fill="url(#paint0_linear_38_5)"/>
</mask>
<g mask="url(#mask0_38_5)">
<circle opacity="0.25" cx="128" cy="257" r="296" fill="url(#paint1_radial_38_5)"/>
<path fill-rule="evenodd" clip-rule="evenodd" d="M128 62.7867C124.99 59.814 121.992 57.0987 119.033 54.6644C111.683 48.6175 104.382 44.1467 97.5686 41.8748C90.7614 39.605 83.9138 39.3793 78.1395 42.713C72.3653 46.0468 69.137 52.0899 67.699 59.12C66.2596 66.1569 66.4811 74.7149 68.0429 84.1038C68.6715 87.8834 69.5242 91.8373 70.5936 95.9303C66.5142 97.0507 62.6637 98.2892 59.0761 99.6346C50.1643 102.977 42.6421 107.064 37.2677 111.829C31.8984 116.589 28.2791 122.406 28.2791 129.074C28.2791 134.856 31.0126 140.019 35.2342 144.377C39.4362 148.715 45.3283 152.501 52.332 155.716C57.6963 158.178 63.8361 160.362 70.5936 162.217C69.5242 166.311 68.6715 170.264 68.0428 174.044C66.4811 183.433 66.2596 191.991 67.699 199.028C69.137 206.058 72.3653 212.101 78.1395 215.435C81.4504 217.346 87.2268 218.032 93.0143 216.331C99.1089 214.54 105.411 210.079 109.68 201.415C110.77 199.203 109.86 196.526 107.648 195.436C105.436 194.346 102.759 195.256 101.669 197.468C98.4962 203.907 94.177 206.682 90.4959 207.764C86.5078 208.936 83.354 208.134 82.6046 207.701C79.8364 206.103 77.592 202.831 76.4481 197.238C75.3056 191.653 75.393 184.281 76.8521 175.509C77.4416 171.965 78.2483 168.232 79.2677 164.345C87.9656 166.24 97.4608 167.634 107.48 168.444C109.199 168.583 110.844 167.719 111.706 166.226C112.568 164.732 112.494 162.876 111.514 161.456C107.879 156.191 104.331 150.59 100.932 144.702C97.9033 139.457 95.1342 134.229 92.6313 129.074C95.1342 123.919 97.9033 118.691 100.932 113.446C103.96 108.201 107.103 103.189 110.316 98.4437C116.032 98.0337 121.943 97.8181 128 97.8181C134.053 97.8181 139.965 98.0335 145.684 98.4438C148.897 103.189 152.04 108.201 155.068 113.446C158.097 118.691 160.866 123.919 163.369 129.074C160.864 134.232 158.095 139.46 155.068 144.702C151.669 150.59 148.121 156.191 144.486 161.456C143.506 162.876 143.431 164.732 144.294 166.226C145.156 167.719 146.801 168.583 148.52 168.444C158.539 167.634 168.034 166.24 176.732 164.345C177.752 168.232 178.558 171.965 179.148 175.509C180.607 184.281 180.694 191.653 179.552 197.238C178.408 202.831 176.164 206.103 173.395 207.701C172.646 208.134 169.492 208.936 165.504 207.764C161.823 206.682 157.504 203.907 154.331 197.468C153.241 195.256 150.564 194.346 148.352 195.436C146.14 196.526 145.23 199.203 146.32 201.415C150.589 210.079 156.891 214.54 162.986 216.331C168.773 218.032 174.55 217.346 177.86 215.435C183.635 212.101 186.863 206.058 188.301 199.028C189.74 191.991 189.519 183.433 187.957 174.044C187.328 170.264 186.476 166.311 185.406 162.217C192.164 160.362 198.304 158.178 203.668 155.716C210.672 152.501 216.564 148.715 220.766 144.377C224.987 140.019 227.721 134.856 227.721 129.074C227.721 120.591 221.914 113.522 213.864 108.078C206.616 103.176 196.834 99.0686 185.406 95.9303C188.402 84.4648 189.736 73.9395 189.115 65.2111C188.425 55.5182 185.207 46.9543 177.86 42.713C172.086 39.3793 165.238 39.605 158.431 41.8748C151.618 44.1467 144.317 48.6175 136.967 54.6644C134.008 57.0987 131.01 59.814 128 62.7867ZM94.7439 50.3465C89.3289 48.5409 85.3729 48.8486 82.6046 50.4468C79.8364 52.0451 77.592 55.3172 76.4481 60.9096C75.3056 66.4952 75.393 73.8668 76.8521 82.6385C77.4416 86.1828 78.2484 89.916 79.2677 93.8025C87.3405 92.0437 96.1134 90.7135 105.373 89.8835C110.722 82.2791 116.261 75.3466 121.82 69.2348C118.964 66.4088 116.134 63.8435 113.36 61.5608C106.493 55.9113 100.152 52.1498 94.7439 50.3465ZM128 75.7142C124.314 79.7966 120.618 84.2806 116.972 89.1206C120.595 88.9667 124.275 88.8879 128 88.8879C131.726 88.8879 135.406 88.9667 139.028 89.1206C135.382 84.2806 131.686 79.7965 128 75.7142ZM150.627 89.8834C145.278 82.2791 139.739 75.3466 134.18 69.2348C137.036 66.4088 139.866 63.8435 142.64 61.5608C149.507 55.9113 155.848 52.1498 161.256 50.3465C166.671 48.5409 170.627 48.8486 173.395 50.4468C176.918 52.4807 179.599 57.2877 180.207 65.8449C180.741 73.337 179.594 82.8893 176.732 93.8025C168.667 92.0454 159.895 90.7142 150.627 89.8834ZM157.087 99.5468C159.031 102.608 160.94 105.755 162.802 108.981C164.665 112.207 166.436 115.433 168.115 118.648C170.481 113.074 172.517 107.631 174.211 102.394C168.829 101.242 163.097 100.284 157.087 99.5468ZM182.912 104.506C180.401 112.369 177.168 120.632 173.253 129.074C177.164 137.508 180.399 145.771 182.912 153.642C189.296 151.895 195.021 149.859 199.943 147.6C206.347 144.66 211.18 141.438 214.351 138.164C217.503 134.91 218.791 131.858 218.791 129.074C218.791 125.006 215.968 120.281 208.862 115.475C202.64 111.268 193.794 107.484 182.912 104.506ZM174.211 155.754C172.518 150.52 170.483 145.078 168.115 139.5C166.437 142.714 164.665 145.94 162.802 149.167C160.938 152.395 159.03 155.542 157.087 158.601C163.108 157.863 168.839 156.903 174.211 155.754ZM98.9134 99.5468C92.8988 100.284 87.1676 101.243 81.7891 102.394C83.4815 107.627 85.5169 113.07 87.8854 118.648C89.5637 115.433 91.3353 112.207 93.1978 108.981C95.0604 105.755 96.9686 102.608 98.9134 99.5468ZM82.7468 129.074C78.8356 120.639 75.6011 112.377 73.0879 104.506C69.2125 105.567 65.5761 106.735 62.2118 107.996C53.8857 111.118 47.458 114.729 43.192 118.511C38.9208 122.298 37.2093 125.877 37.2093 129.074C37.2093 131.858 38.4969 134.91 41.6486 138.164C44.8199 141.438 49.653 144.66 56.0574 147.6C60.9786 149.859 66.7035 151.895 73.0879 153.642C75.6011 145.771 78.8356 137.508 82.7468 129.074ZM81.7891 155.754C87.1611 156.903 92.8916 157.863 98.9133 158.601C96.9698 155.542 95.0616 152.395 93.1978 149.167C91.3353 145.941 89.5637 142.715 87.8854 139.5C85.5169 145.078 83.4815 150.52 81.7891 155.754Z" fill="#58C4DC"/>
<path d="M132.465 143.276C138.504 141.379 142.884 135.738 142.884 129.074C142.884 120.854 136.22 114.19 128 114.19C119.78 114.19 113.116 120.854 113.116 129.074C113.116 135.738 117.496 141.379 123.535 143.276V176.702H119.465C119.212 176.702 118.969 176.802 118.79 176.981L113.396 182.375C113.217 182.554 113.116 182.797 113.116 183.051V196.583C113.116 197.111 113.544 197.539 114.072 197.539H119.07V208.49C119.07 209.018 119.497 209.446 120.025 209.446H124.068C124.596 209.446 125.023 209.018 125.023 208.49V197.539H130.977V208.49C130.977 209.018 131.404 209.446 131.932 209.446H135.975C136.503 209.446 136.93 209.018 136.93 208.49V197.539H141.928C142.456 197.539 142.884 197.111 142.884 196.583L142.884 183.051C142.884 182.797 142.783 182.554 142.604 182.375L137.21 176.981C137.031 176.802 136.788 176.702 136.535 176.702H132.465V143.276Z" fill="#58C4DC"/>
</g>
<defs>
<linearGradient id="paint0_linear_38_5" x1="128" y1="0" x2="128" y2="256" gradientUnits="userSpaceOnUse">
<stop stop-color="#23272F"/>
<stop offset="1" stop-color="#1B1E24"/>
</linearGradient>
<radialGradient id="paint1_radial_38_5" cx="0" cy="0" r="1" gradientUnits="userSpaceOnUse" gradientTransform="translate(128 257) rotate(90) scale(296)">
<stop stop-color="#58C4DC"/>
<stop offset="1" stop-color="#58C4DC" stop-opacity="0"/>
</radialGradient>
</defs>
</svg>
