<svg width="205" height="40" viewBox="0 0 205 40" fill="#0073aa" xmlns="http://www.w3.org/2000/svg">
<path d="M38.5075 22.8153V32.622H43.841V24.5176H40.9139C40.4566 24.5176 40.0181 24.3359 39.6948 24.0126L38.6129 22.9308C38.5759 22.8938 38.5407 22.8552 38.5075 22.8153Z"/>
<path d="M47.7403 17.9455H49.5057C52.4115 17.9455 53.8461 16.4374 53.8461 14.3408C53.8461 12.2073 52.4851 10.6257 49.6528 10.6257H43.841V15.4822H40.9139C40.4566 15.4822 40.0181 15.6639 39.6947 15.9872L38.6129 17.069C38.5759 17.1061 38.5407 17.1446 38.5075 17.1845V6.32202H50.5724C55.6485 6.32202 59.0325 9.26468 59.0325 13.6419C59.0325 16.7317 57.598 19.0858 54.2139 20.0054V20.1157C56.6416 20.8146 57.8923 22.2124 58.2233 25.4125C58.3232 26.4214 58.3851 27.3652 58.4407 28.213C58.5899 30.4869 58.6937 32.0698 59.3636 32.3646V32.622H54.2507C53.6993 32.377 53.5561 30.2951 53.3961 27.9698C53.364 27.503 53.3312 27.0263 53.2943 26.5528C53.0736 23.6837 51.4552 22.0653 48.1447 22.0653H47.7403V17.9455Z"/>
<path fill-rule="evenodd" clip-rule="evenodd" d="M138.824 6.32202V32.622H144.341V23.0952H150.815C156.333 23.0952 159.606 19.7479 159.606 14.7822C159.606 12.3545 158.723 10.2946 157.252 8.7865C155.707 7.20482 153.427 6.32202 150.374 6.32202H138.824ZM144.341 18.7548V10.9567H149.932C152.581 10.9567 154.126 12.3545 154.126 14.819C154.126 17.2099 152.654 18.7548 149.859 18.7548H144.341Z"/>
<path d="M115.024 13.7522V17.0627H117.636V28.1345C117.636 31.7025 120.321 32.6588 122.749 32.6588C124.735 32.6588 125.875 32.5853 125.875 32.5853V28.9069C125.875 28.9069 125.029 28.9437 124.404 28.9437C123.301 28.9437 122.528 28.4655 122.528 27.0678V17.0627H125.765V13.7522H122.528V7.86692H117.636V13.7522H115.024Z"/>
<path fill-rule="evenodd" clip-rule="evenodd" d="M59.8596 23.1688C59.8596 28.7966 63.3908 33.1738 69.6439 33.1738C74.4993 33.1738 77.4788 30.3415 78.1776 26.9942H73.2487C72.6969 28.4288 71.5567 29.3116 69.6071 29.3116C66.7748 29.3116 65.1564 27.5092 64.7885 24.6033H78.4719C78.4719 17.872 75.235 13.2373 69.1657 13.2373C63.6483 13.2373 59.8596 17.5777 59.8596 23.1688ZM64.8621 21.1457C65.3035 18.6812 66.5909 17.0995 69.2393 17.0995C71.5199 17.0995 73.1015 18.7548 73.2487 21.1457H64.8621Z"/>
<path fill-rule="evenodd" clip-rule="evenodd" d="M90.9762 30.5254C91.0865 31.3714 91.2705 32.2542 91.5647 32.622H96.3833V32.4381C95.9419 32.1071 95.7212 31.2611 95.7212 29.8265V20.2261C95.7212 15.8121 93.4407 13.2741 87.7761 13.2741C82.2586 13.2741 79.7941 16.1799 79.647 19.4904H84.0977C84.2449 17.688 85.3851 16.842 87.7393 16.842C89.8359 16.842 90.9026 17.7248 90.9026 19.0858C90.9026 20.5204 89.4681 20.7778 86.3415 21.2192C82.1482 21.8078 78.7642 23.132 78.7642 27.2885C78.7642 31.0404 81.4861 33.0634 85.3484 33.0634C88.5853 33.0634 89.9463 31.9599 90.9026 30.5254H90.9762ZM91.013 25.9643C91.013 27.8034 89.4313 29.569 86.5622 29.569C84.7966 29.569 83.6196 28.9437 83.6196 27.1781C83.6196 25.4125 84.907 24.824 87.5186 24.2355C87.5641 24.2248 87.6097 24.2141 87.6554 24.2034L87.7902 24.1718C88.9627 23.8977 90.1938 23.6099 91.013 23.132V25.9643Z"/>
<path d="M106.552 33.1738C100.594 33.1738 96.8785 28.8334 96.8785 23.2055C96.8785 17.5777 100.557 13.2373 106.295 13.2373C111.187 13.2373 114.203 16.0696 114.865 20.1525H109.973C109.642 18.4973 108.355 17.2466 106.516 17.2466C103.499 17.2466 101.955 19.564 101.955 23.2055C101.955 26.7735 103.389 29.1644 106.442 29.1644C108.465 29.1644 109.9 28.0977 110.231 25.9643H115.049C114.718 29.9737 111.592 33.1738 106.552 33.1738Z"/>
<path d="M126.69 25.67V21.3664H136.658V25.67H126.69Z"/>
<path d="M160.81 32.622V6.32202H165.812V32.622H160.81Z"/>
<path d="M179.92 32.622H184.739V13.7522H179.736V24.6401C179.736 27.1413 178.302 28.9069 175.948 28.9069C173.814 28.9069 172.821 27.6931 172.821 25.4861V13.7522H167.855V26.3321C167.855 30.4518 170.209 33.137 174.403 33.137C177.051 33.137 178.522 32.1439 179.81 30.4151H179.92V32.622Z"/>
<path fill-rule="evenodd" clip-rule="evenodd" d="M195.184 39.0591C190.034 39.0591 186.871 36.8521 186.356 33.1738H191.322C191.726 34.3509 192.793 35.2704 195.11 35.2704C197.943 35.2704 199.304 33.9095 199.304 31.3346V29.2748H199.193C198.09 30.5254 196.655 31.4818 194.264 31.4818C190.071 31.4818 185.951 28.1713 185.951 22.4699C185.951 16.842 189.335 13.2373 194.117 13.2373C196.471 13.2373 198.2 14.1569 199.341 15.7385H199.414V13.7522H204.233V31.1875C204.233 33.8359 203.387 35.6383 201.989 36.9257C200.407 38.397 197.98 39.0591 195.184 39.0591ZM199.561 22.3595C199.561 19.6008 198.09 17.2466 195.074 17.2466C192.536 17.2466 190.844 19.2329 190.844 22.3963C190.844 25.5964 192.536 27.4724 195.11 27.4724C198.274 27.4724 199.561 25.155 199.561 22.3595Z"/>
<path fill-rule="evenodd" clip-rule="evenodd" d="M2.03773 26.6698C1.67561 27.7559 1.73731 28.5493 2.05785 29.1045C2.3784 29.6597 3.03466 30.1098 4.15627 30.3392C5.2765 30.5684 6.75495 30.5508 8.5142 30.2582C9.22506 30.14 9.97379 29.9782 10.7532 29.7737C10.4005 28.1547 10.1337 26.3952 9.96726 24.538C8.44212 23.4652 7.05175 22.3544 5.82595 21.2394C5.25918 21.8122 4.74469 22.3797 4.28686 22.9363C3.15382 24.3135 2.3994 25.5851 2.03773 26.6698ZM4.53274 20C3.93653 20.6037 3.39195 21.2049 2.90373 21.7984C1.69096 23.2725 0.794293 24.7367 0.33864 26.1033C-0.116573 27.4686 -0.161856 28.8419 0.506763 30C1.17538 31.1581 2.3874 31.8056 3.79735 32.094C5.20866 32.3826 6.92504 32.3382 8.80808 32.025C9.56612 31.8989 10.3591 31.7279 11.18 31.5134C11.4047 32.3316 11.6531 33.1038 11.9229 33.8233C12.5932 35.6107 13.4129 37.1194 14.3686 38.1972C15.3233 39.2741 16.49 40 17.8273 40C18.987 40 20.0225 39.4518 20.8965 38.6051C21.7665 37.7623 22.5259 36.5806 23.1706 35.1759C23.6645 34.1001 24.1023 32.8687 24.4745 31.5134C25.2954 31.7279 26.0884 31.8989 26.8465 32.025C28.7295 32.3382 30.4459 32.3826 31.8572 32.094C33.2672 31.8055 34.4792 31.1581 35.1478 30C35.5312 29.336 35.6688 28.1774 35.3276 27.0167C34.9683 25.7944 34.0736 24.5305 32.336 23.6743C31.8924 23.4557 31.3555 23.6381 31.1369 24.0818C30.9183 24.5254 31.1008 25.0623 31.5444 25.2809C32.8359 25.9173 33.3922 26.7835 33.6093 27.5218C33.8444 28.3217 33.6835 28.9542 33.5967 29.1045C33.2762 29.6597 32.6199 30.1098 31.4983 30.3392C30.378 30.5684 28.8996 30.5508 27.1404 30.2582C26.4295 30.14 25.6808 29.9782 24.9013 29.7737C25.2814 28.0293 25.5609 26.1249 25.7233 24.1155C25.7512 23.7708 25.578 23.4408 25.2785 23.2679C24.9789 23.0949 24.6066 23.11 24.3219 23.3065C23.2659 24.0355 22.1425 24.747 20.9616 25.4288C19.9096 26.0362 18.8612 26.5916 17.8273 27.0935C16.7934 26.5916 15.7449 26.0362 14.6929 25.4288C13.641 24.8215 12.6358 24.1912 11.6841 23.5468C11.6019 22.4004 11.5586 21.2147 11.5586 20C11.5586 18.786 11.6018 17.6003 11.6841 16.4532C12.6358 15.8088 13.641 15.1785 14.6929 14.5712C15.7449 13.9638 16.7934 13.4084 17.8273 12.9065C18.8618 13.4087 19.9102 13.9642 20.9616 14.5712C22.1425 15.253 23.2659 15.9645 24.3219 16.6935C24.6066 16.89 24.9789 16.9051 25.2785 16.7321C25.578 16.5592 25.7512 16.2292 25.7233 15.8844C25.5609 13.8751 25.2814 11.9707 24.9013 10.2263C25.6808 10.0218 26.4295 9.86003 27.1404 9.74178C28.8996 9.44915 30.378 9.43162 31.4983 9.66076C32.6199 9.89018 33.2761 10.3403 33.5967 10.8955C33.6835 11.0458 33.8444 11.6783 33.6093 12.4782C33.3922 13.2165 32.8358 14.0827 31.5444 14.7191C31.1008 14.9377 30.9183 15.4746 31.1369 15.9182C31.3555 16.3619 31.8924 16.5443 32.336 16.3257C34.0736 15.4695 34.9683 14.2056 35.3276 12.9833C35.6688 11.8225 35.5312 10.664 35.1478 10C34.4792 8.84191 33.2672 8.19445 31.8572 7.90605C30.4459 7.61737 28.7295 7.6618 26.8465 7.97501C26.0884 8.1011 25.2954 8.2721 24.4745 8.48659C24.1023 7.13131 23.6645 5.89992 23.1706 4.82406C22.5259 3.41939 21.7665 2.23767 20.8965 1.39493C20.0225 0.548247 18.987 -5.51032e-07 17.8273 -5.00338e-07C16.126 -4.25973e-07 14.7081 1.16467 13.6163 2.77906C12.6332 4.23281 11.8094 6.19472 11.18 8.48658C8.88048 7.88574 6.76954 7.61819 5.01897 7.74275C3.07497 7.88108 1.3574 8.52666 0.506763 10C-0.161857 11.1581 -0.116574 12.5315 0.338639 13.8967C0.794293 15.2633 1.69096 16.7275 2.90373 18.2016C3.39195 18.7951 3.93653 19.3963 4.53274 20ZM7.12547 20C7.94423 20.7393 8.84354 21.4805 9.81425 22.2118C9.78339 21.4851 9.76757 20.7471 9.76757 20C9.76757 19.2526 9.78339 18.5146 9.81425 17.7882C8.84354 18.5195 7.94422 19.2607 7.12547 20ZM9.96725 15.462C8.44212 16.5348 7.05175 17.6456 5.82595 18.7606C5.25918 18.1878 4.74469 17.6203 4.28686 17.0637C3.15381 15.6865 2.3994 14.4149 2.03773 13.3302C1.67561 12.2441 1.73731 11.4507 2.05785 10.8955C2.46576 10.189 3.42985 9.6514 5.14609 9.52928C6.6487 9.42236 8.5645 9.65223 10.7532 10.2263C10.4008 11.8438 10.1339 13.6032 9.96725 15.462ZM11.9053 14.1664C12.5192 13.7763 13.1504 13.3936 13.7974 13.0201C14.4444 12.6465 15.0915 12.2912 15.7362 11.9546C14.6183 11.4799 13.5267 11.0716 12.4764 10.732C12.2454 11.8114 12.0531 12.9609 11.9053 14.1664ZM12.9 8.98685C14.477 9.49043 16.1342 10.1389 17.8273 10.924C19.5189 10.1396 21.176 9.4909 22.7546 8.98684C22.4042 7.70639 21.9959 6.55821 21.5429 5.57122C20.9533 4.28676 20.307 3.31742 19.6504 2.68138C18.9979 2.04929 18.3857 1.79105 17.8273 1.79105C17.0115 1.79105 16.0638 2.35716 15.1 3.78242C14.2561 5.03025 13.4972 6.80432 12.9 8.98685ZM23.1782 10.732C22.1286 11.0714 21.037 11.4796 19.9184 11.9546C20.5629 12.2911 21.2099 12.6464 21.8571 13.0201C22.5046 13.3939 23.1358 13.7766 23.7492 14.1664C23.6011 12.9587 23.4088 11.8094 23.1782 10.732ZM11.9053 25.8336C12.0532 27.0399 12.2455 28.1893 12.4764 29.268C13.526 28.9286 14.6176 28.5204 15.7362 28.0454C15.0915 27.7088 14.4444 27.3535 13.7974 26.9799C13.1504 26.6064 12.5192 26.2237 11.9053 25.8336ZM17.8273 29.076C16.1357 29.8604 14.4785 30.5091 12.9 31.0132C13.1127 31.7904 13.3469 32.5197 13.5999 33.1945C14.2261 34.8643 14.9502 36.1535 15.7087 37.0091C16.4682 37.8657 17.1862 38.209 17.8273 38.209C18.3857 38.209 18.9979 37.9507 19.6504 37.3186C20.307 36.6826 20.9533 35.7132 21.5429 34.4288C21.9959 33.4418 22.4042 32.2936 22.7546 31.0132C21.176 30.5091 19.5189 29.8604 17.8273 29.076ZM23.1782 29.268C23.4088 28.1906 23.6011 27.0413 23.7492 25.8336C23.1358 26.2234 22.5046 26.6061 21.8571 26.9799C21.2101 27.3535 20.5631 27.7088 19.9183 28.0454C21.037 28.5204 22.1286 28.9286 23.1782 29.268ZM20.6756 19.1045C20.2953 17.8934 19.1638 17.0149 17.8272 17.0149C16.1786 17.0149 14.8421 18.3514 14.8421 20C14.8421 21.6486 16.1786 22.9851 17.8272 22.9851C19.1638 22.9851 20.2953 22.1066 20.6756 20.8955L39.6405 20.8955L39.6405 21.7117C39.6405 21.7625 39.6607 21.8112 39.6967 21.8471L40.7785 22.9289C40.8144 22.9649 40.8631 22.9851 40.9139 22.9851L43.8196 22.9851L43.8196 21.791L46.2077 21.791L46.2077 20.597L43.8196 20.597L43.8196 20L43.8196 19.403L46.2077 19.403L46.2077 18.2089L43.8196 18.2089L43.8196 17.0149L40.9139 17.0149C40.8631 17.0149 40.8144 17.0351 40.7785 17.071L39.6967 18.1528C39.6607 18.1888 39.6405 18.2375 39.6405 18.2883L39.6405 19.1045L20.6756 19.1045Z"/>
</svg>
